<svg xmlns="http://www.w3.org/2000/svg" viewBox="0 0 64 64" role="img" aria-label="03C: Only at the edges, for light backgrounds"><circle cx="14.13" cy="8.04" r="2.3" fill="oklch(0.49 0.23 300)"/><circle cx="19.82" cy="7.87" r="2.48" fill="oklch(0.48 0.20 260)"/><circle cx="25.95" cy="8.1" r="2.54" fill="oklch(0.61 0.21 302)"/><circle cx="32.09" cy="8.19" r="2.26" fill="oklch(0.40 0.17 275)"/><circle cx="38" cy="7.66" r="2.4" fill="oklch(0.49 0.23 300)"/><circle cx="45.67" cy="8.96" r="1.82" fill="oklch(0.48 0.20 260)"/><circle cx="50.41" cy="6.25" r="1.43" fill="oklch(0.61 0.21 302)"/><circle cx="13.81" cy="13.91" r="2.51" fill="oklch(0.40 0.17 275)"/><circle cx="20" cy="14.13" r="2.48" fill="oklch(0.49 0.23 300)"/><circle cx="26.04" cy="13.94" r="2.25" fill="oklch(0.48 0.20 260)"/><circle cx="31.94" cy="13.95" r="2.5" fill="oklch(0.61 0.21 302)"/><circle cx="38.16" cy="14.24" r="2.18" fill="oklch(0.40 0.17 275)"/><circle cx="44.49" cy="13.31" r="1.85" fill="oklch(0.49 0.23 300)"/><circle cx="52.79" cy="15.84" r="1.49" fill="oklch(0.48 0.20 260)"/><circle cx="14.01" cy="19.92" r="2.26" fill="oklch(0.61 0.21 302)"/><circle cx="20.08" cy="20.15" r="2.31" fill="oklch(0.40 0.17 275)"/><circle cx="13.89" cy="25.81" r="2.41" fill="oklch(0.49 0.23 300)"/><circle cx="20.02" cy="26.07" r="2.48" fill="oklch(0.48 0.20 260)"/><circle cx="14.06" cy="31.85" r="2.28" fill="oklch(0.61 0.21 302)"/><circle cx="19.96" cy="31.99" r="2.32" fill="oklch(0.40 0.17 275)"/><circle cx="25.9" cy="31.91" r="2.35" fill="oklch(0.49 0.23 300)"/><circle cx="31.98" cy="31.91" r="2.4" fill="oklch(0.48 0.20 260)"/><circle cx="38.22" cy="31.72" r="2.17" fill="oklch(0.61 0.21 302)"/><circle cx="45.25" cy="32.99" r="2.01" fill="oklch(0.40 0.17 275)"/><circle cx="13.94" cy="38.03" r="2.3" fill="oklch(0.49 0.23 300)"/><circle cx="20.04" cy="38.04" r="2.46" fill="oklch(0.48 0.20 260)"/><circle cx="25.88" cy="38.12" r="2.41" fill="oklch(0.61 0.21 302)"/><circle cx="31.82" cy="37.94" r="2.35" fill="oklch(0.40 0.17 275)"/><circle cx="38.01" cy="37.83" r="2.37" fill="oklch(0.49 0.23 300)"/><circle cx="45.35" cy="38.78" r="1.94" fill="oklch(0.48 0.20 260)"/><circle cx="14.16" cy="44.01" r="2.46" fill="oklch(0.61 0.21 302)"/><circle cx="20.08" cy="44.06" r="2.43" fill="oklch(0.40 0.17 275)"/><circle cx="13.87" cy="49.8" r="2.24" fill="oklch(0.49 0.23 300)"/><circle cx="20.02" cy="50.09" r="2.52" fill="oklch(0.48 0.20 260)"/><circle cx="14.05" cy="56.03" r="2.34" fill="oklch(0.61 0.21 302)"/><circle cx="19.84" cy="55.89" r="2.43" fill="oklch(0.40 0.17 275)"/><circle cx="56.2" cy="7.45" r="0.9" fill="oklch(0.49 0.23 300)"/><circle cx="51.85" cy="30.35" r="1.08" fill="oklch(0.61 0.21 302)"/><circle cx="49.65" cy="40.2" r="0.81" fill="oklch(0.40 0.17 275)"/></svg>
