<svg xmlns="http://www.w3.org/2000/svg" viewBox="0 0 64 64" role="img" aria-label="06E07: A little irregularity, for dark backgrounds"><rect x="17.4" y="5.4" width="5.2" height="5.2" rx="0.7" fill="oklch(0.68 0.17 260)"/><rect x="23.4" y="5.4" width="5.2" height="5.2" rx="0.7" fill="oklch(0.83 0.10 302)"/><rect x="29.4" y="5.4" width="5.2" height="5.2" rx="0.7" fill="oklch(0.60 0.17 275)"/><rect x="35.4" y="5.4" width="5.2" height="5.2" rx="0.7" fill="oklch(0.73 0.17 300)"/><rect x="41.4" y="5.4" width="5.2" height="5.2" rx="0.7" fill="oklch(0.68 0.17 260)"/><rect x="47.4" y="5.4" width="5.2" height="5.2" rx="0.7" fill="oklch(0.83 0.10 302)"/><rect x="17.4" y="11.4" width="5.2" height="5.2" rx="0.7" fill="oklch(0.73 0.17 300)"/><rect x="23.4" y="11.4" width="5.2" height="5.2" rx="0.7" fill="oklch(0.68 0.17 260)"/><rect x="29.4" y="11.4" width="5.2" height="5.2" rx="0.7" fill="oklch(0.83 0.10 302)"/><rect x="35.4" y="11.4" width="5.2" height="5.2" rx="0.7" fill="oklch(0.60 0.17 275)"/><rect x="41.4" y="11.4" width="5.2" height="5.2" rx="0.7" fill="oklch(0.73 0.17 300)"/><rect x="47.4" y="11.4" width="5.2" height="5.2" rx="0.7" fill="oklch(0.68 0.17 260)"/><rect x="17.667" y="17.598" width="4.844" height="4.844" rx="0.652" fill="oklch(0.60 0.17 275)"/><rect x="17.636" y="23.677" width="4.804" height="4.804" rx="0.647" fill="oklch(0.68 0.17 260)"/><rect x="17.437" y="29.454" width="5.136" height="5.136" rx="0.691" fill="oklch(0.60 0.17 275)"/><rect x="23.289" y="29.544" width="4.996" height="4.996" rx="0.672" fill="oklch(0.73 0.17 300)"/><rect x="30.363" y="29.445" width="4.545" height="4.545" rx="0.612" fill="oklch(0.68 0.17 260)"/><rect x="35.807" y="29.748" width="4.186" height="4.186" rx="0.563" fill="oklch(0.83 0.10 302)"/><rect x="43.561" y="30.38" width="3.777" height="3.777" rx="0.508" fill="oklch(0.60 0.17 275)"/><rect x="17.559" y="35.483" width="5.096" height="5.096" rx="0.686" fill="oklch(0.68 0.17 260)"/><rect x="23.989" y="35.35" width="4.951" height="4.951" rx="0.666" fill="oklch(0.83 0.10 302)"/><rect x="29.994" y="35.974" width="4.315" height="4.315" rx="0.581" fill="oklch(0.60 0.17 275)"/><rect x="37.187" y="36.129" width="3.779" height="3.779" rx="0.509" fill="oklch(0.73 0.17 300)"/><rect x="42.997" y="36.297" width="3.532" height="3.532" rx="0.475" fill="oklch(0.68 0.17 260)"/><rect x="17.754" y="41.638" width="4.745" height="4.745" rx="0.639" fill="oklch(0.60 0.17 275)"/><rect x="17.675" y="47.633" width="4.705" height="4.705" rx="0.633" fill="oklch(0.68 0.17 260)"/><rect x="17.772" y="53.67" width="4.654" height="4.654" rx="0.626" fill="oklch(0.60 0.17 275)"/><rect x="25.137" y="18.227" width="3.916" height="3.916" rx="0.527" fill="oklch(0.73 0.17 300)"/><rect x="31.271" y="19.655" width="3.239" height="3.239" rx="0.436" fill="oklch(0.68 0.17 260)"/><rect x="24.884" y="24.521" width="3.876" height="3.876" rx="0.522" fill="oklch(0.83 0.10 302)"/><rect x="31.666" y="25.012" width="2.996" height="2.996" rx="0.403" fill="oklch(0.60 0.17 275)"/><rect x="24.423" y="42.058" width="3.783" height="3.783" rx="0.509" fill="oklch(0.73 0.17 300)"/><rect x="31.537" y="43.542" width="2.768" height="2.768" rx="0.373" fill="oklch(0.68 0.17 260)"/><rect x="25.269" y="48.336" width="3.743" height="3.743" rx="0.504" fill="oklch(0.83 0.10 302)"/><rect x="32.141" y="49.084" width="2.69" height="2.69" rx="0.362" fill="oklch(0.60 0.17 275)"/><rect x="24.396" y="54.272" width="3.684" height="3.684" rx="0.496" fill="oklch(0.73 0.17 300)"/><rect x="32.596" y="55.339" width="2.65" height="2.65" rx="0.357" fill="oklch(0.68 0.17 260)"/><rect x="48.713" y="30.952" width="3.298" height="3.298" rx="0.444" fill="oklch(0.83 0.10 302)"/><rect x="49.561" y="38.846" width="3.039" height="3.039" rx="0.409" fill="oklch(0.68 0.17 260)"/></svg>
